<?xml version="1.0" encoding="utf-8"?>
<!-- Generator: Adobe Illustrator 16.0.0, SVG Export Plug-In . SVG Version: 6.00 Build 0)  -->
<!DOCTYPE svg PUBLIC "-//W3C//DTD SVG 1.1//EN" "http://www.w3.org/Graphics/SVG/1.1/DTD/svg11.dtd">
<svg version="1.1" id="Layer_1" xmlns="http://www.w3.org/2000/svg" xmlns:xlink="http://www.w3.org/1999/xlink" x="0px" y="0px"
	 width="426.074px" height="306px" viewBox="92.963 166.5 426.074 306" enable-background="new 92.963 166.5 426.074 306"
	 xml:space="preserve">
<title>53 all</title>
<path d="M470.077,166.5H141.923c-27.04,0-48.96,21.92-48.96,48.96v208.08c0,27.04,21.92,48.96,48.96,48.96h328.154
	c27.04,0,48.96-21.92,48.96-48.96V215.46C519.037,188.42,497.117,166.5,470.077,166.5z M141.923,190.98h328.154
	c6.693,0.025,13.085,2.789,17.687,7.65L324.911,303.955c-11.547,6.846-25.908,6.846-37.455,0l-163.282-105.08
	C128.749,193.908,135.171,191.051,141.923,190.98z M470.077,448.02H141.923c-13.52,0-24.48-10.96-24.48-24.479V223.6
	l157.039,101.347c9.523,5.701,20.418,8.706,31.518,8.69c11.263-0.018,22.309-3.107,31.946-8.935L494.558,223.6v199.94
	C494.558,437.06,483.597,448.02,470.077,448.02z"/>
</svg>
